<svg width="44" height="44" viewBox="0 0 44 44" fill="none" xmlns="http://www.w3.org/2000/svg">
<path d="M24.8575 27.082C26.7207 26.8614 28.5513 26.4217 30.3115 25.772C28.8209 24.1208 27.9972 21.9745 28.0005 19.75V19C28.0005 17.4087 27.3683 15.8826 26.2431 14.7574C25.1179 13.6321 23.5918 13 22.0005 13C20.4092 13 18.8831 13.6321 17.7578 14.7574C16.6326 15.8826 16.0005 17.4087 16.0005 19V19.75C16.0035 21.9746 15.1795 24.121 13.6885 25.772C15.4215 26.412 17.2485 26.857 19.1435 27.082M24.8575 27.082C22.9595 27.3071 21.0415 27.3071 19.1435 27.082M24.8575 27.082C25.0016 27.5319 25.0374 28.0094 24.9621 28.4757C24.8867 28.942 24.7023 29.384 24.4239 29.7656C24.1454 30.1472 23.7808 30.4576 23.3597 30.6716C22.9386 30.8856 22.4729 30.9972 22.0005 30.9972C21.5281 30.9972 21.0624 30.8856 20.6413 30.6716C20.2202 30.4576 19.8555 30.1472 19.5771 29.7656C19.2986 29.384 19.1142 28.942 19.0389 28.4757C18.9635 28.0094 18.9994 27.5319 19.1435 27.082" stroke="#494C51" stroke-width="1.5" stroke-linecap="round" stroke-linejoin="round"/>
</svg>
