<svg width="75" height="32" viewBox="0 0 75 32" fill="none" xmlns="http://www.w3.org/2000/svg">
<path d="M1.77324 25V7.35H4.57324L11.5232 18.175H10.0982L17.0232 7.35H19.8482V25H15.9232V13.975L16.6232 14.15L12.0982 21.2H9.49824L4.99824 14.15L5.67324 13.975V25H1.77324ZM31.6582 25.3C30.3249 25.3 29.0915 25.0667 27.9582 24.6C26.8415 24.1333 25.8582 23.4833 25.0082 22.65C24.1582 21.8167 23.4999 20.85 23.0332 19.75C22.5665 18.6333 22.3332 17.4333 22.3332 16.15C22.3332 14.85 22.5665 13.65 23.0332 12.55C23.4999 11.45 24.1499 10.4917 24.9832 9.675C25.8165 8.84167 26.7915 8.2 27.9082 7.75C29.0415 7.28333 30.2749 7.05 31.6082 7.05C32.9249 7.05 34.1415 7.28333 35.2582 7.75C36.3915 8.2 37.3749 8.84167 38.2082 9.675C39.0582 10.4917 39.7165 11.4583 40.1832 12.575C40.6499 13.675 40.8832 14.875 40.8832 16.175C40.8832 17.4583 40.6499 18.6583 40.1832 19.775C39.7165 20.875 39.0665 21.8417 38.2332 22.675C37.3999 23.4917 36.4165 24.1333 35.2832 24.6C34.1665 25.0667 32.9582 25.3 31.6582 25.3ZM31.6082 21.725C32.6582 21.725 33.5749 21.4917 34.3582 21.025C35.1582 20.5583 35.7749 19.9083 36.2082 19.075C36.6415 18.225 36.8582 17.25 36.8582 16.15C36.8582 15.3167 36.7332 14.5667 36.4832 13.9C36.2332 13.2167 35.8749 12.6333 35.4082 12.15C34.9415 11.65 34.3832 11.275 33.7332 11.025C33.0999 10.7583 32.3915 10.625 31.6082 10.625C30.5582 10.625 29.6332 10.8583 28.8332 11.325C28.0499 11.775 27.4415 12.4167 27.0082 13.25C26.5749 14.0667 26.3582 15.0333 26.3582 16.15C26.3582 16.9833 26.4832 17.7417 26.7332 18.425C26.9832 19.1083 27.3332 19.7 27.7832 20.2C28.2499 20.6833 28.8082 21.0583 29.4582 21.325C30.1082 21.5917 30.8249 21.725 31.6082 21.725ZM50.4748 25.275C49.0248 25.275 47.7415 24.9667 46.6248 24.35C45.5248 23.7333 44.6581 22.8833 44.0248 21.8C43.4081 20.7 43.0998 19.45 43.0998 18.05V7.35H47.0498V18.275C47.0498 18.975 47.1998 19.5833 47.4998 20.1C47.7998 20.6167 48.2081 21.0167 48.7248 21.3C49.2581 21.5667 49.8415 21.7 50.4748 21.7C51.1415 21.7 51.7248 21.5667 52.2248 21.3C52.7248 21.0167 53.1165 20.625 53.3998 20.125C53.6998 19.6083 53.8498 19 53.8498 18.3V7.35H57.7998V18.075C57.7998 19.475 57.4915 20.7167 56.8748 21.8C56.2581 22.8833 55.3998 23.7333 54.2998 24.35C53.1998 24.9667 51.9248 25.275 50.4748 25.275ZM63.9285 18.575V15.525H67.7285C68.2118 15.525 68.6535 15.425 69.0535 15.225C69.4535 15.025 69.7702 14.7333 70.0035 14.35C70.2368 13.9667 70.3535 13.5 70.3535 12.95C70.3535 12.4167 70.2368 11.9583 70.0035 11.575C69.7702 11.1917 69.4535 10.9 69.0535 10.7C68.6535 10.5 68.2118 10.4 67.7285 10.4H63.9285V7.35H68.3035C69.4202 7.35 70.4285 7.575 71.3285 8.025C72.2285 8.475 72.9368 9.125 73.4535 9.975C73.9868 10.8083 74.2535 11.8 74.2535 12.95C74.2535 14.1 73.9868 15.1 73.4535 15.95C72.9368 16.7833 72.2285 17.4333 71.3285 17.9C70.4285 18.35 69.4202 18.575 68.3035 18.575H63.9285ZM60.9285 25V7.35H64.8535V25H60.9285Z" fill="#FA6D46"/>
</svg>
