<svg width="44" height="44" viewBox="0 0 44 44" fill="none" xmlns="http://www.w3.org/2000/svg">
<mask id="path-1-inside-1_2206_26199" fill="white">
<path d="M17.4443 15C17.4443 13.8954 18.3398 13 19.4443 13H27.8888C28.9934 13 29.8888 13.8954 29.8888 15V25.4C29.8888 26.5046 28.9934 27.4 27.8888 27.4H19.4443C18.3398 27.4 17.4443 26.5046 17.4443 25.4V15Z"/>
</mask>
<path d="M17.4443 15C17.4443 13.067 19.0113 11.5 20.9443 11.5H27.8888C29.8218 11.5 31.3888 13.067 31.3888 15H28.3888C28.3888 14.7239 28.1649 14.5 27.8888 14.5H19.4443C18.3398 14.5 17.4443 14.7239 17.4443 15ZM29.8888 27.4H17.4443H29.8888ZM17.4443 27.4V13V27.4ZM27.8888 11.5C29.8218 11.5 31.3888 13.067 31.3888 15V23.9C31.3888 25.833 29.8218 27.4 27.8888 27.4C28.1649 27.4 28.3888 26.5046 28.3888 25.4V15C28.3888 14.7239 28.1649 14.5 27.8888 14.5V11.5Z" fill="#C9CDD2" mask="url(#path-1-inside-1_2206_26199)"/>
<rect x="14.75" y="17.3496" width="10.9444" height="12.9" rx="1.25" fill="white"/>
<rect x="14.75" y="17.3496" width="10.9444" height="12.9" rx="1.25" stroke="#C9CDD2" stroke-width="1.5" stroke-linejoin="round"/>
</svg>
