<svg width="44" height="44" viewBox="0 0 44 44" fill="none" xmlns="http://www.w3.org/2000/svg">
<path d="M26.0235 19.3475H31.0155L27.8345 16.1645C26.8104 15.1403 25.5347 14.4038 24.1357 14.0291C22.7367 13.6543 21.2637 13.6544 19.8648 14.0294C18.4658 14.4044 17.1903 15.141 16.1663 16.1653C15.1423 17.1896 14.4061 18.4654 14.0315 19.8645M12.9855 29.6435V24.6515M12.9855 24.6515H17.9775M12.9855 24.6515L16.1655 27.8345C17.1896 28.8586 18.4653 29.5951 19.8643 29.9698C21.2633 30.3446 22.7363 30.3445 24.1352 29.9695C25.5342 29.5945 26.8097 28.8579 27.8337 27.8336C28.8577 26.8093 29.5939 25.5335 29.9685 24.1345M31.0155 14.3555V19.3455" stroke="#494C51" stroke-width="1.5" stroke-linecap="round" stroke-linejoin="round"/>
</svg>
